<svg id="Слой_1" data-name="Слой 1" xmlns="http://www.w3.org/2000/svg" width="82.34" height="25.22" viewBox="0 0 82.34 25.22">
  <defs>
    <style>
      .cls-1, .cls-2, .cls-4 {
        fill: #fff;
      }

      .cls-1, .cls-2, .cls-3, .cls-5 {
        stroke: #999;
        stroke-miterlimit: 10;
        stroke-width: 0.5px;
      }

      .cls-1, .cls-5 {
        stroke-linecap: round;
      }

      .cls-3, .cls-5 {
        fill: none;
      }
    </style>
  </defs>
  <title>article_icons</title>
  <path class="cls-1" d="M43.35,20L48,23.92l0.57-5.62c3.06-1.74,5-4.52,5-7.64C53.63,5.4,48,1.09,41,1.09S28.28,5.37,28.28,10.66,34,20.23,41,20.23A16.26,16.26,0,0,0,43.35,20Z" transform="translate(-0.13 0.11)"/>
  <g>
    <path class="cls-2" d="M15.71,18.44a6.53,6.53,0,0,0-.77-0.82L8,11l-0.78-.76H3.42L2.65,9.46,1.12,8a2.77,2.77,0,0,1-.74-1.8V4.31c0-.58.37-0.71,0.8-0.3L3,5.76,3.76,6.5l0.82-.33A2.7,2.7,0,0,0,5.81,5a1.5,1.5,0,0,0-.36-1.61L3.72,1.73C3.3,1.32,3.44.94,4,.9l2.18-.18,1.09-.08L8.08,1.38,9.37,2.62a3,3,0,0,1,.8,1.8V6.16A3,3,0,0,0,11,8l6.72,6.48,0.78,0.76h0a2.26,2.26,0,0,0,.47,0H21.6a2.8,2.8,0,0,1,1.75.71l1.57,1.51a2.76,2.76,0,0,1,.74,1.8V21.1c0,0.58-.37.71-0.8,0.3l-1.82-1.75a1.69,1.69,0,0,0-1.62-.4l-0.88.35s-0.19.39-.37,0.85a1.58,1.58,0,0,0,.42,1.48l1.72,1.66c0.42,0.41.28,0.79-.32,0.83l-2.18.18-1.09.08L18,23.94l-1.36-1.34-0.76-.76-0.05-1.05-0.07-1.22-0.05-1.05V18.44h0Z" transform="translate(-0.13 0.11)"/>
    <path class="cls-3" d="M15.71,18.44a6.53,6.53,0,0,0-.77-0.82L8,11l-0.78-.76H3.42L2.65,9.46,1.12,8a2.77,2.77,0,0,1-.74-1.8V4.31c0-.58.37-0.71,0.8-0.3L3,5.76,3.76,6.5l0.82-.33A2.7,2.7,0,0,0,5.81,5a1.5,1.5,0,0,0-.36-1.61L3.72,1.73C3.3,1.32,3.44.94,4,.9l2.18-.18,1.09-.08L8.08,1.38,9.37,2.62a3,3,0,0,1,.8,1.8V6.16A3,3,0,0,0,11,8l6.72,6.48,0.78,0.76h0a2.26,2.26,0,0,0,.47,0H21.6a2.8,2.8,0,0,1,1.75.71l1.57,1.51a2.76,2.76,0,0,1,.74,1.8V21.1c0,0.58-.37.71-0.8,0.3l-1.82-1.75a1.69,1.69,0,0,0-1.62-.4l-0.88.35s-0.19.39-.37,0.85a1.58,1.58,0,0,0,.42,1.48l1.72,1.66c0.42,0.41.28,0.79-.32,0.83l-2.18.18-1.09.08L18,23.94l-1.36-1.34-0.76-.76-0.05-1.05-0.07-1.22-0.05-1.05V18.44h0Z" transform="translate(-0.13 0.11)"/>
  </g>
  <g>
    <g>
      <path class="cls-4" d="M66.17,7v15c0,1.41-1.88,2.7-4.31,2.9S57.15,24,57,22.55s1.77-2.85,4.3-3.06a7.1,7.1,0,0,1,2.69.26h0V2.55H64l2.09-.28L78.25,0.64l0.53-.07,1.42-.18,1.24-.15,0.76-.11V19.6c0.16,1.6-1.81,3.06-4.39,3.28s-4.81-.88-5-2.47,1.8-3.06,4.38-3.28a6.79,6.79,0,0,1,3,.38V5.12Z" transform="translate(-0.13 0.11)"/>
      <polygon class="cls-4" points="80.09 0.5 78.67 0.68 80.09 0.49 80.09 0.5"/>
      <polygon class="cls-4" points="81.33 0.35 80.09 0.5 80.09 0.49 81.33 0.33 81.33 0.35"/>
    </g>
    <g>
      <line class="cls-3" x1="80.09" y1="0.5" x2="80.09" y2="0.49"/>
      <polyline class="cls-3" points="66.04 7.08 66.04 22.04 66.04 22.27"/>
      <line class="cls-3" x1="82.06" y1="4.93" x2="82.08" y2="4.93"/>
      <polyline class="cls-3" points="82.08 0.25 82.08 4.93 82.08 5 82.08 19.7 82.08 19.95"/>
      <path class="cls-3" d="M80.22,17.51a6.79,6.79,0,0,0-3-.38c-2.59.22-4.58,1.68-4.38,3.28s2.38,2.69,5,2.47,4.58-1.68,4.39-3.28" transform="translate(-0.13 0.11)"/>
      <line class="cls-3" x1="80.09" y1="17.61" x2="80.09" y2="5.2"/>
      <line class="cls-3" x1="80.09" y1="5.2" x2="66.04" y2="7.08"/>
      <polyline class="cls-3" points="81.33 0.35 81.33 0.33 80.09 0.49 78.67 0.68"/>
      <polyline class="cls-3" points="78.14 0.75 66.04 2.37 63.94 2.65"/>
      <polyline class="cls-3" points="82.08 0.25 81.33 0.35 80.09 0.5 78.67 0.68 78.14 0.75"/>
      <path class="cls-3" d="M64,19.76a7.1,7.1,0,0,0-2.69-.26c-2.53.21-4.46,1.59-4.3,3.06s2.29,2.5,4.85,2.28,4.31-1.49,4.31-2.9V21.77a0.3,0.3,0,0,0,0-.11" transform="translate(-0.13 0.11)"/>
      <polyline class="cls-3" points="63.88 19.91 63.88 19.86 63.88 2.65"/>
      <line class="cls-5" x1="63.79" y1="19.87" x2="63.88" y2="19.91"/>
    </g>
  </g>
</svg>
